<svg version="1.1" xmlns="http://www.w3.org/2000/svg" xmlns:xlink="http://www.w3.org/1999/xlink" width="84.33px" height="122.88px" viewBox="0,0,175.68182,256"><g fill="#ffbf67" fill-rule="evenodd" stroke="none" stroke-width="1" stroke-linecap="butt" stroke-linejoin="miter" stroke-miterlimit="10" stroke-dasharray="" stroke-dashoffset="0" font-family="none" font-weight="none" font-size="none" text-anchor="none" style="mix-blend-mode: normal"><g transform="translate(-0.0487,0.00046) scale(2.08333,2.08333)"><path d="M75.59,28.93c3.65,-0.37 6.1,1.18 6.54,3.57c0.65,3.52 -2.77,6.1 -5.23,8c-0.43,0.33 -0.87,0.65 -1.31,0.95zM17.59,12.42v0c5.84,-0.28 7.37,5.84 6.86,10.71c-0.3,2.87 -1.06,3.92 -2.32,6.44c-1.48,2.39 -3,4.72 -4.4,7.17v53.47c0.00026,1.59617 0.31633,3.17651 0.93,4.65c0.61378,1.46802 1.507,2.80276 2.63,3.93c1.06393,1.08249 2.32263,1.95443 3.71,2.57l0.15,0.07c1.47349,0.61367 3.05383,0.92974 4.65,0.93h31.42c-6.13,5.75 -12.74,9.64 -20.22,9.86l-7.77,9.44c-1.68,1.54 -3.63,1.71 -6,0l-22.53,-15.08c-2.34,-1.58 -4.65,-3.15 -4.7,-6.35c0,-2.23 1.34,-4.51 3.36,-6.75c1.29953,-2.17023 1.9904,-4.65046 2,-7.18c0.17,-5.17 -2.36,-9.69 -2.73,-15.3c-0.43,-6.3 0,-14.79 1,-24.54l0.46,-13.17c0.12386,-1.17387 0.52487,-2.30151 1.17,-3.29l11.58,-17.49l0.71,-0.09zM74.9,55.12v-3.47c3.06022,0.23153 5.91892,1.61443 8,3.87c3,3.61 1,8.77 -2.24,11.25c-0.67933,0.49622 -1.47476,0.80957 -2.31,0.91l0.31,0.06c3.15,2.65 4.69,5.62 4.09,8.5c-0.87,4.24 -7.66,8.62 -11.74,8.92c-1.80824,0.20636 -3.57065,-0.66117 -4.51,-2.22c-2.32,-3.6 1.19,-7.45 3.61,-9.84c1.36087,-1.37116 2.96036,-2.48268 4.72,-3.28v-2.65c-1.50094,-0.56032 -2.64248,-1.80597 -3.07,-3.35c-0.7,-3.18 1.34,-6.26 3.14,-8.7zM74.55,86.27l0.27,-1.4c3.29,-0.26 5.71,0.86 6.94,3.85c0.53,3 0.22,6 -2.55,7.7c-2.61,1.58 -8.21,2.58 -10.91,0.8c-2.88,-1.9 -2.51,-5.17 -0.33,-7.49c1.76363,-1.81008 4.05132,-3.02039 6.54,-3.46zM29.83,0h33.62c2.5319,-0.00265 4.961,1.00128 6.75226,2.79066c1.79126,1.78938 2.79774,4.21744 2.79774,6.74934v41.77c-0.01032,0.1131 -0.01032,0.2269 0,0.34v2.86c-0.91396,1.21834 -1.69821,2.52878 -2.34,3.91c-0.35261,0.78424 -0.61431,1.60625 -0.78,2.45v-50.47h-46.44v2c-0.86636,-0.87066 -1.95088,-1.49237 -3.14,-1.8v-1c-0.02406,-2.54124 0.97001,-4.98639 2.76043,-6.78996c1.79042,-1.80357 4.22823,-2.8155 6.76957,-2.81004zM46.63,89.49c1.59135,-0.00404 3.02807,0.95198 3.63892,2.42143c0.61085,1.46944 0.27525,3.16223 -0.85,4.28749c-1.12526,1.12526 -2.81804,1.46086 -4.28749,0.85c-1.46944,-0.61085 -2.42547,-2.04757 -2.42143,-3.63892c-0.00266,-1.04046 0.40948,-2.03908 1.1452,-2.7748c0.73572,-0.73572 1.73434,-1.14786 2.7748,-1.1452zM69.83,64.11v0.12c0.23316,1.05721 0.74801,2.03164 1.49,2.82c0.44939,0.48862 0.96428,0.91265 1.53,1.26v0.33c-0.56408,0.30391 -1.11152,0.63772 -1.64,1c-0.49,0.33 -0.95,0.7 -1.41,1.08v-6.61zM67.71,86.5v0c0.24359,0.10968 0.49413,0.20322 0.75,0.28c-0.68507,0.47977 -1.31847,1.02938 -1.89,1.64c-0.36975,0.3754 -0.70448,0.78376 -1,1.22c-0.84801,1.23097 -1.29187,2.69536 -1.27,4.19c0.06226,1.59793 0.76941,3.10241 1.96,4.17c0.3094,0.28931 0.64407,0.55035 1,0.78l0.14,0.09c-1.23692,0.56338 -2.58082,0.85331 -3.94,0.85h-33.63c-2.52925,0 -4.95476,-1.00542 -6.74227,-2.79481c-1.78751,-1.78939 -2.79039,-4.21595 -2.78773,-6.74519v-53.74l0.14,-0.26l3,-4.85v55.17z"></path></g></g></svg>