<svg width="18" height="19" viewBox="0 0 18 19" fill="none" xmlns="http://www.w3.org/2000/svg">
<path d="M12.3132 11.8701L8.80831 15.375L5.30344 11.8701C2.67663 11.984 0.57885 14.1332 0.57885 16.7857V17.1384C0.57885 18.112 1.36873 18.9019 2.34231 18.9019H15.2743C16.2479 18.9019 17.0378 18.112 17.0378 17.1384V16.7857C17.0378 14.1332 14.94 11.984 12.3132 11.8701ZM1.0785 3.02343L1.31362 3.07854V5.22407C1.05645 5.37838 0.872759 5.64657 0.872759 5.96987C0.872759 6.27847 1.04176 6.53564 1.28056 6.69362L0.707435 8.98244C0.644979 9.23594 0.784586 9.49678 0.986649 9.49678H2.52233C2.72439 9.49678 2.86399 9.23594 2.80154 8.98244L2.22842 6.69362C2.46722 6.53564 2.63622 6.27847 2.63622 5.96987C2.63622 5.64657 2.45252 5.37838 2.19535 5.22407V3.29162L4.6201 3.87576C4.30415 4.50767 4.10576 5.21305 4.10576 5.96987C4.10576 8.56729 6.21089 10.6724 8.80831 10.6724C11.4057 10.6724 13.5109 8.56729 13.5109 5.96987C13.5109 5.21305 13.3161 4.50767 12.9965 3.87576L16.5345 3.02343C17.2031 2.86178 17.2031 2.02781 16.5345 1.86616L9.53941 0.17618C9.06181 0.0622906 8.55849 0.0622906 8.08089 0.17618L1.0785 1.86249C0.413526 2.02414 0.413526 2.86178 1.0785 3.02343Z" fill="black"/>
</svg>
