<svg width="122" height="222" viewBox="0 0 122 222" fill="none" xmlns="http://www.w3.org/2000/svg">
<path fill-rule="evenodd" clip-rule="evenodd" d="M75.3625 23.0738C75.3625 35.8168 65.0364 46.1475 52.2985 46.1475C39.5606 46.1475 29.2346 35.8168 29.2346 23.0738C29.2346 10.3305 39.5606 0 52.2985 0C65.0364 0 75.3625 10.3305 75.3625 23.0738ZM27.5319 37.5062H21.1901C16.0066 37.5062 0 46.9311 0 65.2423C0 89.5384 16.0066 99.4043 21.1901 99.4043V212.575C21.1901 217.759 25.4314 222 30.6149 222L30.6703 221.999L30.7256 222C35.9091 222 40.1505 217.759 40.1505 212.575V145.392H64.6547V212.575C64.6547 217.759 68.8961 222 74.0796 222L74.1349 221.999L74.1903 222C79.3738 222 83.6151 217.759 83.6151 212.575V70.5226L96.2146 106.635C97.7881 111.144 102.72 113.525 107.23 111.951C111.74 110.378 114.12 105.446 112.547 100.936L93.7901 47.1779C91.7703 41.3895 86.3106 37.512 80.1798 37.512H77.441C72.4513 46.11 63.1452 51.8926 52.4882 51.8926C41.8289 51.8926 32.5211 46.1077 27.5319 37.5062ZM104.381 115.317C94.8274 115.317 87.0833 123.061 87.0833 132.614V136.459C87.0833 139.643 89.6646 142.224 92.8491 142.224C96.0336 142.224 98.615 139.643 98.615 136.459V132.614C98.615 129.43 101.196 126.849 104.381 126.849C107.565 126.849 110.147 129.43 110.147 132.614V213.336C110.147 216.521 112.728 219.102 115.912 219.102C119.097 219.102 121.678 216.521 121.678 213.336V132.614C121.678 123.061 113.934 115.317 104.381 115.317Z" fill="#333333"/>
</svg>
