  <svg xmlns="http://www.w3.org/2000/svg" viewBox="0 0 100 100" id="fastTime">
    <g data-name=" Layer 2" fill="#1E90FF" class="color000000 svgShape ">
      <path d="M87.88,29.84A29.68,29.68,0,0,0,48.4,27.66h-21a1.5,1.5,0,0,0,0,3h17.8a29.56,29.56,0,0,0-4.27,5.91H17.34a1.5,1.5,0,0,0,0,3H39.49a29.83,29.83,0,0,0-2.07,14.08h-10a1.5,1.5,0,0,0,0,3H37.87A29.41,29.41,0,0,0,39.6,62.3H17.34a1.5,1.5,0,0,0,0,3H41.07A29,29,0,0,0,45.19,71H13.7a1.5,1.5,0,0,0,0,3H47.41a1.58,1.58,0,0,0,.75-.2A29.65,29.65,0,0,0,87.88,29.84ZM85.76,69.65a26.64,26.64,0,1,1,0-37.69A26.69,26.69,0,0,1,85.76,69.65Z" fill="#1E90FF" class="color000000 svgShape "></path>
      <path d="M66.92,28.49A22.31,22.31,0,1,0,89.23,50.8,22.34,22.34,0,0,0,66.92,28.49ZM68.42,70V68.25a1.5,1.5,0,0,0-3,0V70A19.32,19.32,0,0,1,47.69,52.3h1.78a1.5,1.5,0,0,0,0-3H47.69A19.31,19.31,0,0,1,65.42,31.57v1.78a1.5,1.5,0,1,0,3,0V31.57A19.31,19.31,0,0,1,86.15,49.3H84.37a1.5,1.5,0,0,0,0,3h1.78A19.32,19.32,0,0,1,68.42,70Z" fill="#1E90FF" class="color000000 svgShape "></path>
      <path d="M75.16 54.3l-6.29-4 6.53-13A1.5 1.5 0 0072.72 36L65.58 50.13a1.5 1.5 0 00.53 1.94l7.43 4.76a1.48 1.48 0 00.8.23 1.5 1.5 0 00.82-2.76zM22.48 55.14a1.5 1.5 0 00-1.5-1.5H5.07a1.5 1.5 0 000 3H21A1.5 1.5 0 0022.48 55.14zM12.42 30.65H21a1.5 1.5 0 000-3H12.42a1.5 1.5 0 000 3zM10.79 48H30.56a1.5 1.5 0 100-3H10.79a1.5 1.5 0 000 3z" fill="#1E90FF" class="color000000 svgShape "></path>
    </g>
  </svg>