<svg width="416" height="416" viewBox="0 0 416 416" fill="none" xmlns="http://www.w3.org/2000/svg">
<path d="M415.5 208C415.5 322.625 322.591 415.5 208 415.5C93.4089 415.5 0.5 322.625 0.5 208C0.5 93.4425 93.409 0.5 208 0.5C322.591 0.5 415.5 93.4425 415.5 208ZM208 249.435C186.416 249.435 168.919 266.933 168.919 288.516C168.919 310.1 186.416 327.597 208 327.597C229.584 327.597 247.081 310.1 247.081 288.516C247.081 266.933 229.584 249.435 208 249.435ZM170.872 111.285L177.093 225.35C177.399 230.953 182.031 235.339 187.642 235.339H228.358C233.969 235.339 238.601 230.953 238.907 225.35L245.128 111.285C245.458 105.234 240.64 100.145 234.58 100.145H181.42C175.359 100.145 170.542 105.234 170.872 111.285Z" fill="#BB861E" stroke="black"/>
</svg>
