 <svg class="img-fluid w-100" viewBox="-2.4 -2.4 28.80 28.80" fill="none" xmlns="http://www.w3.org/2000/svg">
   <g id="SVGRepo_bgCarrier" stroke-width="0">
     <rect x="-2.4" y="-2.4" width="28.80" height="28.80" rx="14.4" fill="#7ed0ec" strokewidth="0">
     </rect>
   </g>
   <g id="SVGRepo_tracerCarrier" stroke-linecap="round" stroke-linejoin="round"></g>
   <g id="SVGRepo_iconCarrier">
     <path d="M2 12C2 8.22876 2 6.34315 3.17157 5.17157C4.34315 4 6.22876 4 10 4H14C17.7712 4 19.6569 4 20.8284 5.17157C22 6.34315 22 8.22876 22 12C22 15.7712 22 17.6569 20.8284 18.8284C19.6569 20 17.7712 20 14 20H10C6.22876 20 4.34315 20 3.17157 18.8284C2 17.6569 2 15.7712 2 12Z" stroke="#1C274C" stroke-width="1.5"></path>
     <path opacity="0.5" d="M10 16H6" stroke="#1C274C" stroke-width="1.5" stroke-linecap="round">
     </path>
     <path opacity="0.5" d="M14 16H12.5" stroke="#1C274C" stroke-width="1.5" stroke-linecap="round">
     </path>
     <path opacity="0.5" d="M2 10L22 10" stroke="#1C274C" stroke-width="1.5" stroke-linecap="round">
     </path>
   </g>
 </svg>