  <svg class="img-fluid w-100" viewBox="-5.28 -5.28 34.56 34.56" fill="none" xmlns="http://www.w3.org/2000/svg" transform="matrix(1, 0, 0, 1, 0, 0)rotate(0)">
    <g id="SVGRepo_bgCarrier" stroke-width="0" transform="translate(0,0), scale(1)">
      <rect x="-5.28" y="-5.28" width="34.56" height="34.56" rx="17.28" fill="#7ed0ec" strokewidth="0">
      </rect>
    </g>
    <g id="SVGRepo_tracerCarrier" stroke-linecap="round" stroke-linejoin="round" stroke="#CCCCCC" stroke-width="1.296">
      <path d="M22 22L2 22" stroke="#1C274C" stroke-width="0.792" stroke-linecap="round"></path>
      <path d="M2 11L6.06296 7.74968M22 11L13.8741 4.49931C12.7784 3.62279 11.2216 3.62279 10.1259 4.49931L9.34398 5.12486" stroke="#1C274C" stroke-width="0.792" stroke-linecap="round"></path>
      <path d="M15.5 5.5V3.5C15.5 3.22386 15.7239 3 16 3H18.5C18.7761 3 19 3.22386 19 3.5V8.5" stroke="#1C274C" stroke-width="0.792" stroke-linecap="round"></path>
      <path d="M4 22V9.5" stroke="#1C274C" stroke-width="0.792" stroke-linecap="round"></path>
      <path d="M20 9.5V13.5M20 22V17.5" stroke="#1C274C" stroke-width="0.792" stroke-linecap="round">
      </path>
      <path d="M15 22V17C15 15.5858 15 14.8787 14.5607 14.4393C14.1213 14 13.4142 14 12 14C10.5858 14 9.87868 14 9.43934 14.4393M9 22V17" stroke="#1C274C" stroke-width="0.792" stroke-linecap="round" stroke-linejoin="round"></path>
      <path d="M14 9.5C14 10.6046 13.1046 11.5 12 11.5C10.8954 11.5 10 10.6046 10 9.5C10 8.39543 10.8954 7.5 12 7.5C13.1046 7.5 14 8.39543 14 9.5Z" stroke="#1C274C" stroke-width="0.792"></path>
    </g>
    <g id="SVGRepo_iconCarrier">
      <path d="M22 22L2 22" stroke="#1C274C" stroke-width="0.792" stroke-linecap="round"></path>
      <path d="M2 11L6.06296 7.74968M22 11L13.8741 4.49931C12.7784 3.62279 11.2216 3.62279 10.1259 4.49931L9.34398 5.12486" stroke="#1C274C" stroke-width="0.792" stroke-linecap="round"></path>
      <path d="M15.5 5.5V3.5C15.5 3.22386 15.7239 3 16 3H18.5C18.7761 3 19 3.22386 19 3.5V8.5" stroke="#1C274C" stroke-width="0.792" stroke-linecap="round"></path>
      <path d="M4 22V9.5" stroke="#1C274C" stroke-width="0.792" stroke-linecap="round"></path>
      <path d="M20 9.5V13.5M20 22V17.5" stroke="#1C274C" stroke-width="0.792" stroke-linecap="round">
      </path>
      <path d="M15 22V17C15 15.5858 15 14.8787 14.5607 14.4393C14.1213 14 13.4142 14 12 14C10.5858 14 9.87868 14 9.43934 14.4393M9 22V17" stroke="#1C274C" stroke-width="0.792" stroke-linecap="round" stroke-linejoin="round"></path>
      <path d="M14 9.5C14 10.6046 13.1046 11.5 12 11.5C10.8954 11.5 10 10.6046 10 9.5C10 8.39543 10.8954 7.5 12 7.5C13.1046 7.5 14 8.39543 14 9.5Z" stroke="#1C274C" stroke-width="0.792"></path>
    </g>
  </svg>