   <svg class="img-fluid w-100 " viewBox="-2.4 -2.4 28.80 28.80" fill="none" xmlns="http://www.w3.org/2000/svg">
     <g id="SVGRepo_bgCarrier" stroke-width="0">
       <rect x="-2.4" y="-2.4" width="28.80" height="28.80" rx="14.4" fill="#7ed0ec" strokewidth="0">
       </rect>
     </g>
     <g id="SVGRepo_tracerCarrier" stroke-linecap="round" stroke-linejoin="round"></g>
     <g id="SVGRepo_iconCarrier">
       <path d="M4.06189 13C4.02104 12.6724 4 12.3387 4 12C4 7.58172 7.58172 4 12 4C14.5006 4 16.7332 5.14727 18.2002 6.94416M19.9381 11C19.979 11.3276 20 11.6613 20 12C20 16.4183 16.4183 20 12 20C9.61061 20 7.46589 18.9525 6 17.2916M9 17H6V17.2916M18.2002 4V6.94416M18.2002 6.94416V6.99993L15.2002 7M6 20V17.2916" stroke="#000000" stroke-width="0.672" stroke-linecap="round" stroke-linejoin="round"></path>
     </g>
   </svg>