<svg width="18" height="17" viewBox="0 0 18 17" fill="none" xmlns="http://www.w3.org/2000/svg">
<path d="M16.5267 12.4886L16.984 13.41C17.1103 13.6645 17.0064 13.9731 16.752 14.0994L14.6475 15.1566C14.1316 15.4127 13.5045 15.1949 13.2592 14.6726L11.2411 10.3776H6.75095C6.23902 10.3776 5.80501 10.0012 5.73258 9.49437C4.64321 1.86871 4.7058 2.34242 4.69358 2.14813C4.69358 0.979351 5.66819 0.0382025 6.84906 0.0930442C7.9186 0.14271 8.77938 1.02223 8.80757 2.09258C8.83548 3.15125 8.06332 4.03496 7.05213 4.18334L7.20225 5.23421H11.38C11.6641 5.23421 11.8944 5.46447 11.8944 5.74855V6.77723C11.8944 7.06131 11.6641 7.29157 11.38 7.29157H7.49616L7.64314 8.32026H11.8944C12.0897 8.32026 12.2809 8.37586 12.4458 8.48056C12.6107 8.58526 12.7423 8.73473 12.8254 8.91149L14.6743 12.8464L15.8373 12.2566C16.0917 12.1303 16.4004 12.2342 16.5267 12.4886ZM10.5879 11.4063H9.80009C9.54974 13.1487 8.04722 14.4923 6.23661 14.4923C4.25134 14.4923 2.63622 12.8772 2.63622 10.8919C2.63622 9.5577 3.36574 8.39066 4.44683 7.76872C4.3275 6.93404 4.22682 6.2302 4.14182 5.63636C2.05617 6.47065 0.57885 8.51191 0.57885 10.8919C0.57885 14.0116 3.1169 16.5497 6.23661 16.5497C8.54696 16.5497 10.538 15.1575 11.4157 13.1682L10.5879 11.4063Z" fill="black"/>
</svg>
